:SAMPLES-PER-SECOND 30
:FRAME-RANGE 1-4244
:FULLY-SPECIFIED
:DEGREES
3051
root  29.0096 39.5894 -25.785 -178.932 -43.5126 178.92
RightUpLeg  -3.57577 -8.25895 0.359515
RightLeg  16.4097 -15.4758 -0.347344
RightFoot  -14.2303 -0.0354176 2.41814
RightToes  -3.31784e-009 0 -3.6325e-017
Spine  12.8593 1.13493 12.5558
Spine1  2.35039 4.66197 -9.79855
HEad  -24.2707 71.2107 -40.6078
LeftShoulder1  0.839076 1.25182 -31.1824
LeftArm  -12.2799 4.09452 -27.7482
LeftForeArm  13.2704 1.27274 -16.0504
LeftHand  0.311634 -0.249391 -6.43202
RightShoulder  3.82497 4.84258 39.7921
RightArm  21.3984 -10.526 17.0096
RightForeArm  -0.469379 30.3306 6.64849
RightHand  0.252907 1.38367 4.21566
LeftUpLeg  -26.3927 1.69552 1.02743
LeftLeg  47.9398 1.08153 1.6985
LeftFoot  -1.39029 0.712116 -8.07603
LeftToes  1.0277e-010 -6.71454e-011 3.04227e-011
3052
root  28.237 39.7613 -26.697 -177.557 -43.2354 177.616
RightUpLeg  -0.36489 -8.25915 -0.69178
RightLeg  12.7254 -15.1302 0.409563
RightFoot  -14.2421 -0.0245306 2.84204
RightToes  -3.31784e-009 0 -3.6325e-017
Spine  12.6548 1.95971 11.8108
Spine1  1.30681 5.26423 -10.7413
HEad  -24.1518 70.8403 -40.4081
LeftShoulder1  0.782857 1.4114 -31.3354
LeftArm  -11.861 7.55478 -26.8105
LeftForeArm  11.3073 0.947663 -16.1589
LeftHand  0.296184 0.0367244 -6.47892
RightShoulder  3.85237 4.96211 39.4828
RightArm  20.4453 -10.2903 16.8377
RightForeArm  1.20285 32.3015 7.06451
RightHand  0.252292 1.14899 4.23282
LeftUpLeg  -27.0873 3.79902 -1.28333
LeftLeg  37.2717 0.800194 1.01099
LeftFoot  -1.56691 0.693712 -7.99549
LeftToes  1.0277e-010 -6.71454e-011 3.04227e-011
3053
root  27.4524 39.8651 -27.5935 -176.557 -43.2242 176.638
RightUpLeg  3.11328 -7.96808 -1.42702
RightLeg  8.80768 -15.3208 1.03324
RightFoot  -14.202 -0.00906269 3.49138
RightToes  -3.31784e-009 0 -3.6325e-017
Spine  12.3697 2.49551 11.1003
Spine1  0.81139 5.72757 -11.5923
HEad  -24.4493 70.5488 -40.477
LeftShoulder1  0.725423 1.57388 -31.5072
LeftArm  -11.732 10.4018 -25.8448
LeftForeArm  10.4438 0.85345 -16.2046
LeftHand  0.298458 0.0752286 -6.58127
RightShoulder  4.03034 5.36858 39.4038
RightArm  20.2496 -9.9097 16.7165
RightForeArm  2.13327 33.2716 7.27059
RightHand  0.253704 1.09633 4.28068
LeftUpLeg  -26.413 6.17059 -3.64083
LeftLeg  24.8786 -0.957682 -0.158582
LeftFoot  -1.05132 0.842923 -9.27837
LeftToes  1.0277e-010 -6.71454e-011 3.04227e-011
3054
root  26.6274 39.8516 -28.5021 -176.057 -43.2892 176.009
RightUpLeg  6.59685 -7.73839 -1.98055
RightLeg  5.68154 -15.4598 1.52725
RightFoot  -14.6423 0.0218497 4.20197
RightToes  -3.31784e-009 0 -3.6325e-017
Spine  11.9032 2.81085 10.5282
Spine1  0.928246 6.13655 -12.3762
HEad  -24.7458 70.4455 -40.154
LeftShoulder1  0.677878 1.69977 -31.4925
LeftArm  -12.1677 12.6898 -25.0353
LeftForeArm  9.87259 1.0394 -16.1701
LeftHand  0.304765 0.153252 -6.79319
RightShoulder  4.32858 6.00876 39.4729
RightArm  20.3806 -9.47908 16.9193
RightForeArm  2.05291 33.1283 7.2366
RightHand  0.254792 1.13156 4.24056
LeftUpLeg  -24.9744 8.03992 -5.518
LeftLeg  13.4116 -2.35846 -0.765783
LeftFoot  -0.0855151 0.993623 -10.0603
LeftToes  1.0277e-010 -6.71454e-011 3.04227e-011
3055
root  25.7468 39.7154 -29.442 -176.01 -43.625 175.826
RightUpLeg  9.64627 -7.61902 -2.3124
RightLeg  4.18951 -15.5251 1.77455
RightFoot  -15.78 0.10171 5.38288
RightToes  -3.31784e-009 0 -3.6325e-017
Spine  11.1156 2.93304 9.85283
Spine1  1.39412 6.30329 -12.6022
HEad  -24.5465 70.5341 -39.3725
LeftShoulder1  0.636958 1.79588 -31.2082
LeftArm  -12.7747 14.4926 -24.5902
LeftForeArm  9.1229 1.5788 -16.1575
LeftHand  0.31195 0.245647 -7.13064
RightShoulder  4.6132 6.55048 39.8297
RightArm  21.0232 -8.8395 17.1524
RightForeArm  1.21706 32.0019 6.98509
RightHand  0.256881 1.24615 4.2902
LeftUpLeg  -23.5576 2.25807 -3.40127
LeftLeg  5.89661 4.94043 -2.42515
LeftFoot  -0.454628 0.813026 -8.49394
LeftToes  1.0277e-010 -6.71454e-011 3.04227e-011
3056
root  24.7988 39.4556 -30.4371 -176.488 -44.2818 175.911
RightUpLeg  12.4163 -7.77637 -2.55272
RightLeg  4.52643 -15.6422 1.71107
RightFoot  -17.5905 0.248711 6.73614
RightToes  -3.31784e-009 0 -3.6325e-017
Spine  10.3104 2.85075 8.85731
Spine1  2.18351 6.1589 -12.2662
HEad  -24.6284 70.3571 -38.7041
LeftShoulder1  0.606824 1.85979 -30.8214
LeftArm  -13.8534 15.631 -24.4888
LeftForeArm  8.32068 2.32035 -16.0555
LeftHand  0.309844 0.435959 -7.38461
RightShoulder  4.74523 6.7092 40.3787
RightArm  21.7723 -8.13782 17.5676
RightForeArm  0.262473 30.5553 6.66553
RightHand  0.257809 1.33984 4.33225
LeftUpLeg  -22.6567 0.541248 -3.32679
LeftLeg  3.78925 7.15864 -2.86608
LeftFoot  -1.12715 0.759922 -8.41795
LeftToes  1.0277e-010 -6.71454e-011 3.04227e-011
3057
root  23.7574 39.125 -31.5126 -177.16 -45.2073 175.768
RightUpLeg  15.0401 -8.43762 -3.33902
RightLeg  6.70129 -14.986 1.4377
RightFoot  -19.6285 0.512214 8.89535
RightToes  -3.31784e-009 0 -3.6325e-017
Spine  9.59223 2.74009 7.27576
Spine1  3.13499 5.86042 -11.4754
HEad  -24.9389 70.0988 -37.9423
LeftShoulder1  0.59712 1.87133 -30.4848
LeftArm  -14.2018 15.6022 -24.5278
LeftForeArm  7.35028 3.28925 -16.0894
LeftHand  0.290103 0.74326 -7.42831
RightShoulder  4.74293 6.52878 41.1471
RightArm  22.4136 -8.12975 17.8535
RightForeArm  -0.656377 29.3557 6.4154
RightHand  0.255094 1.40243 4.23955
LeftUpLeg  -21.4783 0.63078 -4.58524
LeftLeg  6.15905 6.47201 -1.86279
LeftFoot  -1.11991 0.742896 -8.22286
LeftToes  1.0277e-010 -6.71454e-011 3.04227e-011
3058
root  22.7037 38.8835 -32.6118 -177.87 -45.6522 175.693
RightUpLeg  17.2382 -9.90932 -4.47295
RightLeg  9.63453 -12.7618 0.833999
RightFoot  -20.4743 0.797209 11.6896
RightToes  -3.31784e-009 0 -3.6325e-017
Spine  9.10766 2.79854 5.47834
Spine1  3.83658 5.81383 -11.0762
HEad  -25.0743 70.1505 -37.1402
LeftShoulder1  0.593837 1.86775 -30.2011
LeftArm  -13.6658 14.968 -24.4146
LeftForeArm  6.9519 3.84103 -16.2539
LeftHand  0.282667 0.807622 -7.35393
RightShoulder  4.69243 6.19075 42.2059
RightArm  24.138 -8.76937 17.8487
RightForeArm  -1.74419 28.3006 6.21554
RightHand  0.242555 1.46369 3.9829
LeftUpLeg  -20.5389 1.77674 -5.7991
LeftLeg  9.29729 6.72237 -0.699417
LeftFoot  3.64912 0.514508 -4.07877
LeftToes  1.0277e-010 -6.71454e-011 3.04227e-011
3059
root  21.6756 38.6897 -33.7104 -177.727 -46.5219 174.514
RightUpLeg  17.7711 -15.2696 -7.4162
RightLeg  16.224 -5.89503 -1.36433
RightFoot  -20.4119 1.17326 16.4436
RightToes  -3.31784e-009 0 -3.6325e-017
Spine  9.18251 2.58425 2.36804
Spine1  3.96336 5.19668 -10.2794
HEad  -26.5073 70.1473 -37.764
LeftShoulder1  0.620365 1.82199 -30.7974
LeftArm  -12.4917 13.4234 -23.5451
LeftForeArm  6.55427 3.56186 -16.5059
LeftHand  0.275977 0.869223 -7.29179
RightShoulder  4.5582 5.64733 43.5158
RightArm  27.377 -9.03439 18.1176
RightForeArm  -3.39304 26.7483 5.93167
RightHand  0.243047 1.49911 3.96721
LeftUpLeg  -20.3966 4.54068 -8.16653
LeftLeg  14.4302 2.02891 0.0696489
LeftFoot  4.34101 -0.0911915 0.47095
LeftToes  1.0277e-010 -6.71454e-011 3.04227e-011
3060
root  20.7353 38.5153 -34.651 -176.854 -47.8695 173.218
RightUpLeg  14.154 -15.6182 -8.86723
RightLeg  28.0007 -3.83581 -2.4392
RightFoot  -17.6182 1.18346 23.4754
RightToes  -3.31784e-009 0 -3.6325e-017
Spine  9.42107 2.16402 0.0441646
Spine1  3.90414 4.5194 -10.4189
HEad  -25.8066 69.6616 -36.5206
LeftShoulder1  0.752673 1.49538 -31.3958
LeftArm  -11.3464 10.2117 -23.3877
LeftForeArm  6.67826 3.76176 -16.7368
LeftHand  0.245303 1.03865 -6.78079
RightShoulder  4.39122 5.16862 44.2776
RightArm  31.5747 -9.65674 18.9503
RightForeArm  -5.89764 24.7977 5.60801
RightHand  0.250294 1.62791 4.00195
LeftUpLeg  -20.5748 6.02888 -9.74577
LeftLeg  19.1274 -0.862489 -0.00168941
LeftFoot  1.7415 -0.198456 1.6389
LeftToes  1.0277e-010 -6.71454e-011 3.04227e-011
3061
root  19.8207 38.5236 -35.4879 -176.534 -48.6603 172.626
RightUpLeg  7.98809 -14.8984 -9.8541
RightLeg  41.7379 -3.50871 -3.6347
RightFoot  -8.16017 -0.778914 25.6218
RightToes  -3.31784e-009 0 -3.6325e-017
Spine  9.59139 1.9609 -1.13572
Spine1  4.22696 4.23187 -10.9743
HEad  -23.2731 69.0615 -34.1469
LeftShoulder1  0.868602 1.19944 -31.6196
LeftArm  -11.5453 6.15615 -24.6339
LeftForeArm  7.80794 4.3237 -16.7044
LeftHand  0.238521 0.96844 -6.48066
RightShoulder  4.3884 5.18019 44.186
RightArm  36.3905 -10.9413 19.6129
RightForeArm  -8.36558 23.7745 5.50113
RightHand  0.282478 1.68033 4.49614
LeftUpLeg  -19.4087 6.1824 -10.0375
LeftLeg  21.393 -1.54376 -0.327961
LeftFoot  -0.956706 -0.182407 2.07102
LeftToes  1.0277e-010 -6.71454e-011 3.04227e-011
3062
root  18.9044 38.5896 -36.3117 -176.146 -48.8009 172.022
RightUpLeg  -0.0930569 -13.467 -10.0346
RightLeg  54.677 -3.9561 -6.38575
RightFoot  5.93111 -2.18565 14.5885
RightToes  -3.31784e-009 0 -3.6325e-017
Spine  9.70557 1.95665 -2.13223
Spine1  4.34061 4.12933 -11.2049
HEad  -19.3767 67.8863 -30.7129
LeftShoulder1  0.950787 1.00991 -32.054
LeftArm  -11.2803 1.68003 -26.3323
LeftForeArm  8.53209 4.06546 -16.7544
LeftHand  0.237355 0.848676 -6.25897
RightShoulder  4.31457 5.05721 44.0619
RightArm  40.684 -11.9112 19.7188
RightForeArm  -9.21443 23.8341 5.55298
RightHand  0.354906 1.72081 5.64917
LeftUpLeg  -17.7828 5.85533 -10.2074
LeftLeg  22.6393 -1.31792 -0.25815
LeftFoot  -3.58399 -0.103502 1.84556
LeftToes  1.0277e-010 -6.71454e-011 3.04227e-011
3063
root  18.0634 38.627 -37.0934 -176.112 -49.0769 171.501
RightUpLeg  -5.89844 -12.4637 -10.521
RightLeg  62.7788 -2.68002 -6.20874
RightFoot  4.25555 -1.76255 13.0321
RightToes  -3.31784e-009 0 -3.6325e-017
Spine  10.3625 1.95439 -3.11315
Spine1  4.26294 3.86435 -11.3501
HEad  -13.2741 65.5134 -24.9304
LeftShoulder1  1.07526 0.726754 -32.6524
LeftArm  -10.1692 -3.37557 -28.1805
LeftForeArm  9.91898 3.83323 -16.8824
LeftHand  0.249583 0.485775 -6.03086
RightShoulder  4.24732 4.92357 44.0644
RightArm  43.8937 -12.673 19.6193
RightForeArm  -9.25847 23.6917 5.53468
RightHand  0.393839 1.89547 6.11705
LeftUpLeg  -15.8433 6.3807 -10.2875
LeftLeg  23.6443 -1.97311 -0.593287
LeftFoot  -6.05538 -0.0432968 1.72802
LeftToes  1.0277e-010 -6.71454e-011 3.04227e-011
3064
root  17.2034 38.813 -37.8884 -177.104 -49.6583 172.122
RightUpLeg  -10.6197 -12.1494 -10.2046
RightLeg  66.1158 -1.93281 -5.43372
RightFoot  2.70073 -1.49027 12.2087
RightToes  -3.31784e-009 0 -3.6325e-017
Spine  10.9692 1.67989 -3.23212
Spine1  4.04439 3.38514 -11.1938
HEad  -7.08515 61.7866 -19.0682
LeftShoulder1  1.21585 0.38287 -32.8953
LeftArm  -9.94522 -7.95265 -30.5825
LeftForeArm  12.7836 3.36856 -16.733
LeftHand  0.229202 0.272436 -5.28217
RightShoulder  4.25085 4.9177 44.1351
RightArm  46.1462 -12.9607 19.5529
RightForeArm  -9.59461 22.6422 5.75849
RightHand  0.36216 1.98999 5.53208
LeftUpLeg  -12.9037 6.3006 -9.37391
LeftLeg  23.1628 -2.29527 -0.937352
LeftFoot  -7.7767 -0.00306185 1.60207
LeftToes  1.0277e-010 -6.71454e-011 3.04227e-011
